# xmcd
#
# Track frame offsets:
#	150
#	25772
#	60417
#
# Disc length: 1141 seconds
# Revision: 2
# Processed by: cddbd v1.5.2PL0 Copyright (c) Steve Scherf et al.
# Submitted via: dBpowerAMP V12.0
#
DISCID=19047303
DTITLE=Favorite Blue - solitude
DYEAR=1999
DGENRE=J-POP
TTITLE0=solitude
TTITLE1=solitude GROOVE THAT SOUL MIX
TTITLE2=solitude Acoustic Version
EXTD=
EXTT0=
EXTT1=
EXTT2=
PLAYORDER=
